<svg xmlns="http://www.w3.org/2000/svg" version="1.1" xmlns:xlink="http://www.w3.org/1999/xlink" xmlns:svgjs="http://svgjs.dev/svgjs" width="1000" height="803" viewBox="0 0 1000 803"><g transform="matrix(1,0,0,1,0,0)"><svg viewBox="0 0 448 360" data-background-color="#ffffff" preserveAspectRatio="xMidYMid meet" height="803" width="1000" xmlns="http://www.w3.org/2000/svg" xmlns:xlink="http://www.w3.org/1999/xlink"><g id="tight-bounds" transform="matrix(1,0,0,1,0,0)"><svg viewBox="0 0 448 360" height="360" width="448"><g><svg></svg></g><g><svg viewBox="0 0 448 360" height="360" width="448"><g><path xmlns="http://www.w3.org/2000/svg" d="M193.855 44.683c1.378 0 2.494 1.116 2.495 2.494 0 1.378-1.116 2.494-2.495 2.495h-23.846l-17.167 17.167c-0.973 0.973-2.551 0.973-3.53 0-0.973-0.973-0.973-2.551 0-3.529l13.644-13.645h-40.378c-11.518 0-19.151 2.688-23.815 8.113-4.739 5.519-6.66 14.056-6.66 25.63 0 0.069 0 0.137-0.006 0.206l0.212 36.692 14.692-14.692c0.973-0.973 2.551-0.973 3.53 0 0.973 0.973 0.973 2.551 0 3.53l-18.178 18.178c0.206 35.832 0.193 71.358-0.013 107.19 25.486 25.2 50.617 50.312 75.811 75.791h25.38c1.378 0 2.494 1.116 2.495 2.495 0 1.378-1.116 2.494-2.495 2.494h-20.448l25.942 26.241 0.006-0.006c8.188 8.188 15.577 12.859 22.824 13.413 7.146 0.543 14.442-2.956 22.586-11.093l28.555-28.555h-20.722c-1.378 0-2.494-1.116-2.495-2.494 0-1.378 1.116-2.494 2.495-2.495h25.711l16.625-16.625c0.973-0.973 2.551-0.973 3.529 0 0.973 0.973 0.973 2.551 0 3.53l-13.101 13.102h40.377c11.518 0 19.151-2.688 23.815-8.113 4.739-5.519 6.66-14.056 6.66-25.63h0.013l-0.212-36.898-16.014 16.014c-0.973 0.973-2.551 0.973-3.53 0-0.973-0.973-0.973-2.551 0-3.53l19.5-19.5c-0.206-35.832-0.193-71.358 0.013-107.19-25.486-25.2-50.617-50.312-75.811-75.791h-26.147c-1.378 0-2.494-1.116-2.495-2.495 0-1.378 1.116-2.494 2.495-2.494h21.215l-25.824-26.123c-0.044-0.037-0.081-0.075-0.124-0.112-8.188-8.188-15.577-12.859-22.824-13.413-7.146-0.543-14.442 2.956-22.586 11.093l-28.555 28.555h18.858zM122.578 44.683h45.367l32.078-32.078c9.248-9.248 17.81-13.195 26.484-12.534 8.568 0.649 16.956 5.824 25.985 14.854 0.05 0.05 0.094 0.094 0.137 0.143l29.278 29.615h43.508c13.071 0 21.919 3.268 27.594 9.871 5.6 6.517 7.864 16.101 7.864 28.867 0 0.081-0.006 0.156-0.012 0.23l-0.225 39.742 28.43 28.112 0.006-0.006c9.03 9.03 14.206 17.411 14.854 25.985 0.661 8.674-3.293 17.236-12.534 26.484l-30.768 30.768 0.237 41.843h0.012c0 12.765-2.27 22.35-7.864 28.867-5.675 6.604-14.524 9.872-27.594 9.871h-45.366l-32.078 32.078c-9.248 9.248-17.81 13.195-26.484 12.534-8.568-0.649-16.956-5.824-25.985-14.854l0.006-0.006-29.421-29.758h-43.509c-13.071 0-21.919-3.268-27.594-9.872-5.6-6.517-7.864-16.101-7.863-28.866h0.012l0.231-39.972-28.293-27.969c-0.05-0.044-0.1-0.087-0.143-0.137-9.03-9.03-14.206-17.411-14.854-25.985-0.661-8.674 3.293-17.236 12.534-26.484l30.768-30.768-0.237-41.607c-0.006-0.075-0.012-0.156-0.012-0.23 0-12.765 2.27-22.35 7.864-28.867 5.675-6.604 14.524-9.872 27.594-9.871zM87.682 179.997l-0.274-47.724-27.276 27.276c-8.138 8.138-11.636 15.44-11.094 22.587 0.549 7.246 5.226 14.642 13.413 22.823 0.037 0.037 0.081 0.081 0.113 0.125l24.837 24.551 0.281-49.644zM92.303 241.483l-0.2 35.09h0.013c0 11.58 1.921 20.117 6.66 25.63 4.664 5.432 12.297 8.113 23.815 8.113h38.576l-33.55-33.936-35.308-34.903zM325.415 49.672h-38.575l33.549 33.936 35.308 34.902 0.2-34.884c-0.006-0.069-0.006-0.137-0.007-0.205 0-11.58-1.921-20.117-6.66-25.63-4.664-5.432-12.297-8.113-23.815-8.113zM360.599 130.352l-0.281 49.645 0.274 47.724 27.276-27.276c8.138-8.138 11.636-15.44 11.094-22.587-0.549-7.252-5.226-14.642-13.413-22.824l0.006-0.006-24.956-24.669z" fill="#bb84e8" fill-rule="nonzero" stroke="none" stroke-width="1" stroke-linecap="butt" stroke-linejoin="miter" stroke-miterlimit="10" stroke-dasharray="" stroke-dashoffset="0" font-family="none" font-weight="none" font-size="none" text-anchor="none" style="mix-blend-mode: normal" data-fill-palette-color="tertiary"></path></g><g transform="matrix(1,0,0,1,112,140.20936365022945)"><svg viewBox="0 0 224 79.5812726995411" height="79.5812726995411" width="224"><g><svg viewBox="0 0 224 79.5812726995411" height="79.5812726995411" width="224"><g><svg viewBox="0 0 224 79.5812726995411" height="79.5812726995411" width="224"><g><svg viewBox="0 0 224 79.5812726995411" height="79.5812726995411" width="224"><g><svg viewBox="0 0 224 64.30525023169108" height="64.30525023169108" width="224"><path d="M223.476 13.792C222.422 7.117 219.421 5.262 219.421 5.262 210.207-1.613 198.707-0.132 188.377 0.856 170.137 0.896 151.972 2.365 133.775 3.153 95.58 3.273 57.059 1.297 19.053 6.17 15.483 7.665-3.704 6.463 0.635 14.647 1.772 18.051 5.921 21.829 5.795 24.953 6.364 25.5 7.154 24.245 7.49 25.033 8.67 27.155 10.597 26.154 12.177 27.409 9.976 30.76 11.555 33.55 13.061 36.473 10.407 37.234 7.006 36.874 5.479 39.397 5.321 41.226 4.468 40.879 3.531 40.799 2.846 40.745 1.467 40.946 1.699 41.52 2.488 43.482-0.902 44.617 1.225 46.539-0.239 48.622 2.236 50.424 1.899 52.68 1.857 53.134 2.088 53.521 2.457 53.628 4.089 54.202 1.709 55.323 1.962 56.538 18.706 64.842 36.871 59.101 54.026 62.919 58.48 60.249 55.131 63.867 56.911 63.306 58.301 62.652 59.312 65.362 60.881 63.827 61.123 63.386 60.755 62.345 61.618 62.545 62.071 62.652 62.471 62.626 62.535 62.011 62.629 61.09 61.797 61.664 61.576 61.184 63.967 58.754 63.377 64.535 65.62 64.294 65.515 63.587 64.862 62.572 66.199 62.706 67.526 61.691 67.568 60.85 68.748 63.133 68.79 63.627 69 63.974 69.337 64.214 73.023 61.731 76.688 65.095 80.553 63.974 82.922 62.746 85.197 64.641 87.598 64.174 88.44 63.8 89.293 63.133 90.104 64.254 100.034 64.495 110.618 63.493 120.032 64.294 145.19 62.799 172.075 64.908 198.602 62.933 204.857 62.172 211.355 61.09 217.452 60.223 217.452 60.223 222.391 57.846 222.391 47.167S223.444 37.822 223.602 29.318C223.76 20.814 224.497 20.467 223.444 13.792Z" opacity="1" fill="#bb84e8" data-fill-palette-color="tertiary"></path><g transform="matrix(1,0,0,1,31.584000000000003,18.981962000000003)"><svg width="160.832" viewBox="4.130000114440918 -35.54999923706055 220 36.040000915527344" height="26.341326231691077" data-palette-color="#ffffff"><path d="M17.19-13.92L8.81-13.92 8.81 0 4.13 0 4.13-35.55 17.24-35.55Q23.07-35.55 26.38-32.57 29.69-29.59 29.69-24.68L29.69-24.68Q29.69-19.51 26.45-16.71 23.22-13.92 17.19-13.92L17.19-13.92ZM8.81-31.69L8.81-17.75 17.24-17.75Q21-17.75 23-19.52 25-21.29 25-24.63L25-24.63Q25-27.81 23-29.71 21-31.62 17.5-31.69L17.5-31.69 8.81-31.69ZM56.42 0L48.7-14.38 40.35-14.38 40.35 0 35.64 0 35.64-35.55 47.41-35.55Q53.42-35.55 56.65-32.81 59.89-30.08 59.89-24.85L59.89-24.85Q59.89-21.53 58.09-19.07 56.3-16.6 53.1-15.38L53.1-15.38 61.45-0.29 61.45 0 56.42 0ZM40.35-31.69L40.35-18.21 47.56-18.21Q51.05-18.21 53.11-20.02 55.17-21.83 55.17-24.85L55.17-24.85Q55.17-28.15 53.21-29.91 51.24-31.67 47.53-31.69L47.53-31.69 40.35-31.69ZM89.47 0L86.08-9.28 71.19-9.28 67.84 0 63.01 0 76.58-35.55 80.68-35.55 94.28 0 89.47 0ZM78.63-29.76L72.6-13.13 84.69-13.13 78.63-29.76ZM113.96-10.3L113.96-35.55 118.67-35.55 118.67-10.38Q118.67-5.27 115.61-2.39 112.54 0.49 107.44 0.49L107.44 0.49Q102.14 0.49 99.19-2.22 96.23-4.93 96.23-9.81L96.23-9.81 100.92-9.81Q100.92-6.76 102.59-5.05 104.26-3.34 107.44-3.34L107.44-3.34Q110.34-3.34 112.14-5.18 113.93-7.01 113.96-10.3L113.96-10.3ZM128.7-35.55L134.32-11.21 135-6.52 136-10.74 143.03-35.55 146.99-35.55 153.85-10.74 154.82-6.45 155.58-11.23 161.1-35.55 165.81-35.55 157.19 0 152.92 0 145.6-25.9 145.03-28.61 144.47-25.9 136.88 0 132.61 0 124.01-35.55 128.7-35.55ZM192.98 0L189.59-9.28 174.69-9.28 171.35 0 166.52 0 180.09-35.55 184.19-35.55 197.79 0 192.98 0ZM182.14-29.76L176.11-13.13 188.2-13.13 182.14-29.76ZM207.28-35.55L207.28-3.83 224.13-3.83 224.13 0 202.57 0 202.57-35.55 207.28-35.55Z" opacity="1" transform="matrix(1,0,0,1,0,0)" fill="#ffffff" class="undefined-text-0" data-fill-palette-color="quaternary" id="text-0"></path></svg></g></svg></g><g transform="matrix(1,0,0,1,42.784000000000006,70.52380516316379)"><svg viewBox="0 0 138.432 9.057467536377318" height="9.057467536377318" width="138.432"><g transform="matrix(1,0,0,1,0,0)"><svg width="138.432" viewBox="0.9500000476837158 -32.150001525878906 498.1999816894531 32.60000228881836" height="9.057467536377318" data-palette-color="#bb84e8"><path d="M23.55-32.1L23.85-31.65 23.55-27.75 17.75-28.05 15.05-28.05 14.8-10.1 15.05 0 9.85 0 10.15-9.65 9.9-28.05 7.2-28.05 1.3-27.75 0.95-28.2 1.35-32.1 23.55-32.1ZM50.6-25.05L50.35-7.95 50.55 0 45.75 0 45.9-7.5 45.85-10.5 39.4-10.55 33.5-10.45 33.45-7.95 33.65 0 28.85 0 29.05-7.5 28.85-25.05 33.7-25.05 33.55-14.65 39.75-14.55 45.85-14.6 45.75-25.05 50.6-25.05ZM68.19-3.8L74.94-4 75.3-3.65 74.9 0 58.84 0 59.05-7.5 58.84-25.05 75.05-25.05 75.34-24.65 75-21 68.64-21.25 63.65-21.2 63.55-14.7 68.34-14.65 72.69-14.8 72.94-14.4 72.64-10.7 67.94-10.85 63.5-10.8 63.45-7.95 63.55-3.85 68.19-3.8ZM100.09-32.15Q104.94-32.15 107.57-29.68 110.19-27.2 110.19-22.55L110.19-22.55Q110.19-17.15 106.87-14 103.54-10.85 97.74-10.85L97.74-10.85 94.19-10.85 94.19-10.1 94.44 0 89.19 0 89.54-9.65 89.19-32.1 100.09-32.15ZM99.24-14.85Q101.99-15.4 103.42-17.23 104.84-19.05 104.84-22.1L104.84-22.1Q104.84-25.1 103.32-26.55 101.79-28 98.69-28.1L98.69-28.1 94.44-27.95 94.24-14.95 99.24-14.85ZM128.69-10Q131.59-5.65 135.24-1.15L135.24-1.15 135.19-0.55Q132.59 0.2 130.64 0.35L130.64 0.35 129.89-0.1Q126.24-6 124.74-8.7L124.74-8.7 120.34-8.65 120.34-7.95 120.54 0 115.74 0 115.94-7.5 115.74-25.05 125.24-25.1Q129.29-25.1 131.51-23.18 133.74-21.25 133.74-17.75L133.74-17.75Q133.74-15.3 132.41-13.3 131.09-11.3 128.69-10L128.69-10ZM120.54-21.3L120.39-12.5 124.74-12.35Q128.69-13.5 128.69-17.3L128.69-17.3Q128.69-19.35 127.49-20.33 126.29-21.3 123.84-21.4L123.84-21.4 120.54-21.3ZM150.89-25.4Q156.39-25.4 159.41-22.18 162.44-18.95 162.44-13.1L162.44-13.1Q162.44-6.6 159.21-3.1 155.99 0.4 150.04 0.4L150.04 0.4Q144.49 0.4 141.49-2.9 138.49-6.2 138.49-12.25L138.49-12.25Q138.49-18.55 141.71-21.98 144.94-25.4 150.89-25.4L150.89-25.4ZM150.44-21.45Q146.84-21.45 145.16-19.43 143.49-17.4 143.49-12.85L143.49-12.85Q143.49-7.8 145.14-5.65 146.79-3.5 150.39-3.5L150.39-3.5Q154.04-3.5 155.74-5.53 157.44-7.55 157.44-12.15L157.44-12.15Q157.44-17.15 155.79-19.3 154.14-21.45 150.44-21.45L150.44-21.45ZM179.88-25.35Q183.78-25.35 187.78-23.8L187.78-23.8 186.33-19.25 185.83-19.25Q183.93-20.4 182.41-20.9 180.88-21.4 179.03-21.4L179.03-21.4Q175.13-21.4 173.28-19.23 171.43-17.05 171.43-12.2L171.43-12.2Q171.43-7.5 173.18-5.53 174.93-3.55 178.93-3.55L178.93-3.55Q179.98-3.55 180.93-3.75 181.88-3.95 183.28-4.45L183.28-4.45 183.28-6.55 183.23-10.3 187.63-10.6 187.58-7.3 187.58-1.2Q182.48 0.35 178.68 0.35L178.68 0.35Q172.58 0.35 169.48-2.85 166.38-6.05 166.38-12L166.38-12Q166.38-18.45 169.91-21.9 173.43-25.35 179.88-25.35L179.88-25.35ZM206.38-25.05L214.83 0 209.98 0 209.33-3.1 208.43-5.85 202.83-5.9 197.83-5.85 196.88-3.35 196.18 0 191.43 0 200.78-25.05 206.38-25.05ZM203.18-9.55L207.18-9.6 203.63-20.55 203.28-20.55 199.23-9.6 203.18-9.55ZM245.28-25.05L247.73 0 243.48 0 242.98-7.6 241.83-17.8 241.53-17.8 235.03-2.65 231.28-2.65 225.28-17.8 224.88-17.8 223.78-8.05 223.13 0 219.08 0 221.78-25.05 227.38-25.05 228.53-21.35 233.23-9 233.58-9 238.58-21.4 239.83-25.05 245.28-25.05ZM279.48-25.05L281.93 0 277.68 0 277.18-7.6 276.03-17.8 275.73-17.8 269.23-2.65 265.48-2.65 259.48-17.8 259.08-17.8 257.98-8.05 257.33 0 253.28 0 255.98-25.05 261.58-25.05 262.73-21.35 267.43-9 267.78-9 272.78-21.4 274.03-25.05 279.48-25.05ZM293.72-25.05L293.47-7.95 293.67 0 288.87 0 289.07-7.5 288.87-25.05 293.72-25.05ZM323.92-25.15L323.67-7.65 323.82 0 318.62 0 306.77-17.6 306.47-17.6 306.42-8.5 306.57 0 302.22 0 302.42-7.35 302.27-25.05 307.37-25.05 319.22-7.45 319.62-7.45 319.47-24.9 323.92-25.15ZM342.87-25.35Q346.77-25.35 350.77-23.8L350.77-23.8 349.32-19.25 348.82-19.25Q346.92-20.4 345.39-20.9 343.87-21.4 342.02-21.4L342.02-21.4Q338.12-21.4 336.27-19.23 334.42-17.05 334.42-12.2L334.42-12.2Q334.42-7.5 336.17-5.53 337.92-3.55 341.92-3.55L341.92-3.55Q342.97-3.55 343.92-3.75 344.87-3.95 346.27-4.45L346.27-4.45 346.27-6.55 346.22-10.3 350.62-10.6 350.57-7.3 350.57-1.2Q345.47 0.35 341.67 0.35L341.67 0.35Q335.57 0.35 332.47-2.85 329.37-6.05 329.37-12L329.37-12Q329.37-18.45 332.89-21.9 336.42-25.35 342.87-25.35L342.87-25.35ZM374.36-21.25L370.21-21.2 370.11-14 374.11-13.95 378.56-14.1 378.91-13.7 378.56-10.05 373.71-10.15 370.06-10.1 370.01-7.95 370.21 0 365.41 0 365.61-7.5 365.41-25.05 380.71-25.05 381.01-24.65 380.61-21 374.36-21.25ZM398.31-10Q401.21-5.65 404.86-1.15L404.86-1.15 404.81-0.55Q402.21 0.2 400.26 0.35L400.26 0.35 399.51-0.1Q395.86-6 394.36-8.7L394.36-8.7 389.96-8.65 389.96-7.95 390.16 0 385.36 0 385.56-7.5 385.36-25.05 394.86-25.1Q398.91-25.1 401.14-23.18 403.36-21.25 403.36-17.75L403.36-17.75Q403.36-15.3 402.04-13.3 400.71-11.3 398.31-10L398.31-10ZM390.16-21.3L390.01-12.5 394.36-12.35Q398.31-13.5 398.31-17.3L398.31-17.3Q398.31-19.35 397.11-20.33 395.91-21.3 393.46-21.4L393.46-21.4 390.16-21.3ZM420.11-3.8L426.86-4 427.21-3.65 426.81 0 410.76 0 410.96-7.5 410.76-25.05 426.96-25.05 427.26-24.65 426.91-21 420.56-21.25 415.56-21.2 415.46-14.7 420.26-14.65 424.61-14.8 424.86-14.4 424.56-10.7 419.86-10.85 415.41-10.8 415.36-7.95 415.46-3.85 420.11-3.8ZM444.81-25.05L453.25 0 448.41 0 447.75-3.1 446.86-5.85 441.25-5.9 436.25-5.85 435.31-3.35 434.61 0 429.86 0 439.2-25.05 444.81-25.05ZM441.61-9.55L445.61-9.6 442.06-20.55 441.7-20.55 437.66-9.6 441.61-9.55ZM478.8-25.1L468.8-13.3Q473.55-7.15 479.45-1.1L479.45-1.1 479.35-0.4Q477 0.2 474.65 0.45L474.65 0.45 473.95 0.15Q467.7-7.35 463.65-13L463.65-13 463.65-13.35 471.7-22.7 473.3-25.05 478.8-25.1ZM463.75-25.05L463.5-7.95 463.7 0 458.9 0 459.1-7.5 458.9-25.05 463.75-25.05ZM492.1-25.35Q495.3-25.35 498.5-24.1L498.5-24.1 497.75-19.55 497-19.4Q494.1-21.7 491.5-21.7L491.5-21.7Q489.65-21.7 488.57-20.75 487.5-19.8 487.5-18.55L487.5-18.55Q487.5-17.3 488.63-16.48 489.75-15.65 492.15-14.65L492.15-14.65Q494.4-13.7 495.77-12.88 497.15-12.05 498.15-10.7 499.15-9.35 499.15-7.35L499.15-7.35Q499.15-5.3 498.07-3.55 497-1.8 494.88-0.73 492.75 0.35 489.75 0.35L489.75 0.35Q487.95 0.35 485.95-0.05 483.95-0.45 482.1-1.25L482.1-1.25 482.75-6.1 483.3-6.4Q484.75-4.95 486.72-4.13 488.7-3.3 490.35-3.3L490.35-3.3Q492.15-3.3 493.27-4.23 494.4-5.15 494.4-6.5L494.4-6.5Q494.4-7.85 493.25-8.68 492.1-9.5 489.7-10.5L489.7-10.5Q487.55-11.45 486.15-12.28 484.75-13.1 483.77-14.48 482.8-15.85 482.8-17.85L482.8-17.85Q482.8-19.95 483.92-21.65 485.05-23.35 487.17-24.35 489.3-25.35 492.1-25.35L492.1-25.35Z" opacity="1" transform="matrix(1,0,0,1,0,0)" fill="#bb84e8" class="undefined-text-1" data-fill-palette-color="secondary" id="text-1"></path></svg></g></svg></g></svg></g></svg></g><g></g></svg></g></svg></g></svg></g><defs></defs></svg><rect width="448" height="360" fill="none" stroke="none" visibility="hidden"></rect></g></svg></g></svg>