<svg xmlns="http://www.w3.org/2000/svg" version="1.1" xmlns:xlink="http://www.w3.org/1999/xlink" xmlns:svgjs="http://svgjs.dev/svgjs" width="1000" height="1000" viewBox="0 0 1000 1000"><rect width="1000" height="1000" fill="#bb84e8"></rect><g transform="matrix(0.7,0,0,0.7,150,106.25)"><svg viewBox="0 0 320 360" data-background-color="#bb84e8" preserveAspectRatio="xMidYMid meet" height="1125" width="1000" xmlns="http://www.w3.org/2000/svg" xmlns:xlink="http://www.w3.org/1999/xlink"><g id="tight-bounds" transform="matrix(1,0,0,1,0,0)"><svg viewBox="0 0 320 360" height="360" width="320"><g><svg></svg></g><g><svg viewBox="0 0 320 360" height="360" width="320"><g><path xmlns="http://www.w3.org/2000/svg" d="M160 340c88.258 0 160-71.742 160-160 0-88.258-71.742-160-160-160-88.258 0-160 71.742-160 160 0 88.258 71.742 160 160 160zM165.161 329.368v-10.323c72.671-2.684 131.2-61.213 133.884-133.884h10.323c-2.684 78.452-65.755 141.523-144.207 144.207zM165.161 30.632c78.452 2.684 141.523 65.755 144.207 144.207h-10.323c-2.684-72.671-61.213-131.2-133.884-133.884zM289.032 180c0 71.123-57.91 129.032-129.032 129.032-71.123 0-129.032-57.91-129.032-129.032 0-71.123 57.91-129.032 129.032-129.032 71.123 0 129.032 57.91 129.032 129.032zM154.839 30.632v10.323c-72.671 2.684-131.2 61.213-133.884 133.884h-10.323c2.684-78.452 65.755-141.523 144.207-144.207zM20.955 185.161c2.684 72.671 61.213 131.2 133.884 133.884v10.323c-78.452-2.684-141.523-65.755-144.207-144.207z" fill="#454545" fill-rule="nonzero" stroke="none" stroke-width="1" stroke-linecap="butt" stroke-linejoin="miter" stroke-miterlimit="10" stroke-dasharray="" stroke-dashoffset="0" font-family="none" font-weight="none" font-size="none" text-anchor="none" style="mix-blend-mode: normal" data-fill-palette-color="tertiary"></path></g><g transform="matrix(1,0,0,1,64,96.05034496831135)"><svg viewBox="0 0 192 167.8993100633773" height="167.8993100633773" width="192"><g><svg viewBox="0 0 192 167.8993100633773" height="167.8993100633773" width="192"><g transform="matrix(1,0,0,1,0,123.30496167582231)"><svg viewBox="0 0 192 44.594348387555" height="44.594348387555" width="192"><g><svg viewBox="0 0 192 44.594348387555" height="44.594348387555" width="192"><g><rect width="36.672" height="2.6029940091561494" y="38.83478565527739" fill="#454545" data-fill-palette-color="tertiary"></rect><rect width="36.672" height="2.6029940091561494" y="38.83478565527739" x="155.328" fill="#454545" data-fill-palette-color="tertiary"></rect></g><g><svg viewBox="0 0 192 28.86409648933879" height="28.86409648933879" width="192"><g transform="matrix(1,0,0,1,0,0)"><svg width="192" viewBox="3.75 -34.29999923706055 232.13999938964844 34.89999771118164" height="28.86409648933879" data-palette-color="#454545"><path d="M3.75 0L3.75-34.3 20.35-34.3Q25.7-34.3 28.5-31.43 31.3-28.55 31.3-23.6L31.3-23.6Q31.3-18.65 28.38-15.7 25.45-12.75 20.2-12.75L20.2-12.75 9.3-12.75 9.3 0 3.75 0ZM9.3-17.5L20-17.5Q22.65-17.5 24.18-19.13 25.7-20.75 25.7-23.6L25.7-23.6Q25.7-26.45 24.25-28 22.8-29.55 20-29.55L20-29.55 9.3-29.55 9.3-17.5ZM37.1 0L37.1-34.3 55.05-34.3Q60.4-34.3 63.2-31.6 66-28.9 66-24.25L66-24.25Q66-20.7 64.4-18.2 62.8-15.7 59.8-14.55L59.8-14.55 67.4 0 61.35 0 54.3-13.75 42.65-13.75 42.65 0 37.1 0ZM42.65-18.45L54.7-18.45Q57.35-18.45 58.87-19.98 60.4-21.5 60.4-24.2L60.4-24.2Q60.4-26.75 58.95-28.15 57.5-29.55 54.7-29.55L54.7-29.55 42.65-29.55 42.65-18.45ZM69.75 0L83.1-34.3 90.1-34.3 103.4 0 97.5 0 94.35-8.35 78.55-8.35 75.45 0 69.75 0ZM80.3-13.1L92.55-13.1 88.8-23.15 86.55-29.55 86.3-29.55 85.85-28.25Q85-25.65 84.1-23.25L84.1-23.25 80.3-13.1ZM115.44 0.6Q110.44 0.6 107.74-1.93 105.04-4.45 105.04-9.3L105.04-9.3 105.04-10.85 110.54-10.85 110.54-9.15Q110.54-6.7 111.79-5.4 113.04-4.1 115.44-4.1L115.44-4.1Q117.84-4.1 119.09-5.53 120.34-6.95 120.34-9.7L120.34-9.7 120.34-34.3 125.84-34.3 125.84-9.85Q125.84-4.65 123.17-2.02 120.49 0.6 115.44 0.6L115.44 0.6ZM139.54 0L129.89-34.3 135.74-34.3 142.04-11.05Q142.39-9.8 143.19-5.95L143.19-5.95 143.44-5.95 144.39-11.05 149.59-34.3 156.99-34.3 162.34-11.05Q162.69-9.6 163.34-5.95L163.34-5.95 163.59-5.95Q164.39-9.75 164.74-11.05L164.74-11.05 170.94-34.3 176.29-34.3 166.64 0 159.69 0 154.19-23.4Q153.74-25.35 153.14-28.75L153.14-28.75 152.89-28.75Q152.34-25.05 151.94-23.4L151.94-23.4 146.49 0 139.54 0ZM174.84 0L188.19-34.3 195.19-34.3 208.49 0 202.59 0 199.44-8.35 183.64-8.35 180.54 0 174.84 0ZM185.39-13.1L197.64-13.1 193.89-23.15 191.64-29.55 191.39-29.55 190.94-28.25Q190.09-25.65 189.19-23.25L189.19-23.25 185.39-13.1ZM212.49 0L212.49-34.3 218.04-34.3 218.04-4.8 235.89-4.8 235.89 0 212.49 0Z" opacity="1" transform="matrix(1,0,0,1,0,0)" fill="#454545" class="undefined-text-0" data-fill-palette-color="primary" id="text-0"></path></svg></g></svg></g><g transform="matrix(1,0,0,1,36.672,35.678216932155934)"><svg viewBox="0 0 118.656 8.916131455399062" height="8.916131455399062" width="118.656"><g transform="matrix(1,0,0,1,8,0)"><svg width="102.656" viewBox="1 -37.79999923706055 575.0499877929688 49.94999694824219" height="8.916131455399062" data-palette-color="#454545"><path d="M20 0L11 0 11-27.4 1-26.9 1-35.4 30.25-35.4 30.25-26.9 20-27.4 20-8 20.55-3 20 0ZM40.75 0L31.75 0 31.75-27.4 30.75-32.4 31.75-35.4 40.75-35.4 40.75-27.3 40.25-21.75 40.75-21.5Q41.35-22.4 42.97-23.28 44.6-24.15 47.25-24.15L47.25-24.15Q51.75-24.15 54-21.6 56.25-19.05 56.25-14.45L56.25-14.45 56.25-7.95 57.3-3.05 56.25 0 47.25 0 47.25-13.15Q47.25-15.05 46.42-16.07 45.6-17.1 43.85-17.1L43.85-17.1 40.75-15.65 40.75 0ZM73.59 0.5L73.59 0.5Q69.75 0.5 66.75-0.65 63.74-1.8 62.05-4.5 60.34-7.2 60.34-11.8L60.34-11.8Q60.34-15.1 61.47-17.45 62.59-19.8 64.5-21.28 66.39-22.75 68.75-23.43 71.09-24.1 73.59-24.1L73.59-24.1Q77.89-24.1 80.22-23.25 82.55-22.4 83.3-21.9L83.3-21.9 85.8-13.95 84.8-10.85 69.3-10.85Q69.64-9 71.14-7.75 72.64-6.5 76.09-6.5L76.09-6.5Q78.8-6.5 80.75-7.1 82.69-7.7 83.8-8.15L83.8-8.15 83.8-1.45Q82.3-0.65 79.47-0.08 76.64 0.5 73.59 0.5ZM69.34-14.05L69.34-14.05 76.25-15.05 75.8-17.2Q75.44-17.4 74.77-17.5 74.09-17.6 73.59-17.6L73.59-17.6Q72.19-17.6 71.27-17 70.34-16.4 69.87-15.58 69.39-14.75 69.34-14.05ZM111.99 0L102.99 0 102.99-27.35 101.99-32.4 102.99-35.4 118.99-35.4Q122.64-35.4 125.57-34.27 128.49-33.15 130.22-30.48 131.94-27.8 131.94-23.1L131.94-23.1Q131.94-18.4 130.09-15.68 128.24-12.95 124.97-11.8 121.69-10.65 117.49-10.65L117.49-10.65 111.99-10.65 111.99-8.05 112.49-3.05 111.99 0ZM111.49-27.4L111.99-18.5 116.89-18.5Q119.49-18.5 121.04-19.48 122.59-20.45 122.59-23.1L122.59-23.1Q122.59-24.95 121.84-25.88 121.09-26.8 119.77-27.1 118.44-27.4 116.69-27.4L116.69-27.4 111.49-27.4ZM146.39 0L137.49 0 137.49-15.65 136.44-20.65 137.49-23.65 144.29-23.65 145.29-22.5Q145.29-22.5 145.99-22.93 146.69-23.35 147.96-23.75 149.24-24.15 150.94-24.15L150.94-24.15Q151.94-24.15 152.94-24 153.94-23.85 154.49-23.6L154.49-23.6 157.74-20.85 154.49-14.45 147.89-17.2 146.39-16.7 146.39 0ZM170.29 0.5L170.29 0.5Q164.19 0.5 160.84-2.4 157.49-5.3 157.49-11.8L157.49-11.8Q157.49-18.35 160.84-21.23 164.19-24.1 170.29-24.1L170.29-24.1Q176.54-24.1 179.76-21.23 182.99-18.35 182.99-11.8L182.99-11.8Q182.99-5.3 179.76-2.4 176.54 0.5 170.29 0.5ZM170.29-6L170.29-6Q172.34-6 173.14-7.53 173.94-9.05 173.94-11.8L173.94-11.8Q173.94-14.6 173.14-16.1 172.34-17.6 170.29-17.6L170.29-17.6Q168.19-17.6 167.36-16.1 166.54-14.6 166.54-11.8L166.54-11.8Q166.54-9.05 167.36-7.53 168.19-6 170.29-6ZM197.03 12.15L197.03 12.15Q195.78 12.15 194.18 12.08 192.58 12 191.58 11.9L191.58 11.9 185.48 8.95 187.98 2.45 195.83 5Q202.48 5 202.48-0.55L202.48-0.55 202.48-1.5 201.98-1.75Q201.28-1.05 199.76-0.33 198.23 0.4 194.98 0.4L194.98 0.4Q192.63 0.4 190.43-0.78 188.23-1.95 186.86-4.55 185.48-7.15 185.48-11.3L185.48-11.3Q185.48-15.95 186.88-18.78 188.28-21.6 190.46-22.9 192.63-24.2 194.98-24.2L194.98-24.2Q197.58-24.2 199.26-23.45 200.93-22.7 201.48-22L201.48-22 201.48-23.65 210.53-23.65 211.03-20.65 210.48-17.65 210.53-0.05Q210.53 4.25 208.86 6.95 207.18 9.65 204.16 10.9 201.13 12.15 197.03 12.15ZM198.73-6.65L198.73-6.65Q199.63-6.65 200.38-6.9 201.13-7.15 201.48-7.35L201.48-7.35 201.48-16.7Q201.28-16.85 200.73-17 200.18-17.15 199.23-17.15L199.23-17.15Q197.28-17.15 196.13-15.9 194.98-14.65 194.98-11.85L194.98-11.85Q194.98-9.1 196.08-7.88 197.18-6.65 198.73-6.65ZM222.53 0.5L222.53 0.5Q220.38 0.5 218.56-0.13 216.73-0.75 215.63-2.3 214.53-3.85 214.53-6.6L214.53-6.6Q214.53-9.1 215.78-10.75 217.03-12.4 219.18-13.2 221.33-14 224.03-14L224.03-14Q226.63-14 227.93-13.43 229.23-12.85 230.18-12.25L230.18-12.25 230.53-12.55Q230.53-14.05 230.28-15.05 230.03-16.05 229.13-16.57 228.23-17.1 226.33-17.1L226.33-17.1Q224.48-17.1 222.41-16.78 220.33-16.45 218.61-15.98 216.88-15.5 216.03-15.05L216.03-15.05 216.03-22.55Q217.58-23.1 220.46-23.58 223.33-24.05 227.53-24.05L227.53-24.05Q232.03-24.05 234.66-22.93 237.28-21.8 238.43-19.68 239.58-17.55 239.58-14.6L239.58-14.6 239.58-7.95 240.58-2.9 239.58 0.05 231.03 0.05 231.03-2.4 230.53-2.65Q230.13-2.25 229.13-1.5 228.13-0.75 226.48-0.13 224.83 0.5 222.53 0.5ZM226.78-6.05L226.78-6.05Q228.13-6.05 229.11-6.3 230.08-6.55 230.53-6.75L230.53-6.75 230.53-7.7Q230.53-8.35 229.61-8.95 228.68-9.55 226.73-9.55L226.73-9.55Q224.03-9.55 224.03-7.65L224.03-7.65Q224.03-6.85 224.63-6.45 225.23-6.05 226.78-6.05ZM245.58-15.05L244.58-20.55 246.13-23.6 253.58-23.6 253.58-21.45 254.03-21.15Q254.58-21.65 255.55-22.33 256.53-23 257.93-23.55 259.33-24.1 261.08-24.1L261.08-24.1Q266.28-24.1 268.53-20.65L268.53-20.65Q269.43-21.9 271.25-23.03 273.08-24.15 276.33-24.15L276.33-24.15Q280.83-24.15 283.08-21.6 285.33-19.05 285.33-14.45L285.33-14.45 285.33-8.05 286.38-3.05 285.33 0 276.33 0 276.33-13.15Q276.33-15.05 275.5-16.07 274.68-17.1 272.93-17.1L272.93-17.1Q271.78-17.1 270.93-16.25 270.08-15.4 270.08-14.1L270.08-14.1 270.08 0 261.08 0 261.08-13.1Q261.08-15 260.25-16.03 259.43-17.05 257.68-17.05L257.68-17.05 254.58-16.1 254.58 0 245.58 0 245.58-15.05ZM291.38-15.05L290.38-20.55 291.93-23.6 299.38-23.6 299.38-21.45 299.83-21.15Q300.38-21.65 301.35-22.33 302.33-23 303.73-23.55 305.13-24.1 306.88-24.1L306.88-24.1Q312.08-24.1 314.33-20.65L314.33-20.65Q315.23-21.9 317.05-23.03 318.88-24.15 322.13-24.15L322.13-24.15Q326.63-24.15 328.88-21.6 331.13-19.05 331.13-14.45L331.13-14.45 331.13-8.05 332.18-3.05 331.13 0 322.13 0 322.13-13.15Q322.13-15.05 321.3-16.07 320.48-17.1 318.73-17.1L318.73-17.1Q317.58-17.1 316.73-16.25 315.88-15.4 315.88-14.1L315.88-14.1 315.88 0 306.88 0 306.88-13.1Q306.88-15 306.05-16.03 305.23-17.05 303.48-17.05L303.48-17.05 300.38-16.1 300.38 0 291.38 0 291.38-15.05ZM348.02-31.45L341.67-25.05 335.32-31.45 341.67-37.8 348.02-31.45ZM346.17 0L337.17 0 337.17-16.55 336.12-20.55 337.12-23.6 346.17-23.6 346.17 0ZM360.77 0L351.77 0 351.77-15.05 350.77-20.55 352.32-23.6 359.77-23.6 359.77-21.45 360.22-21.15Q360.77-21.65 361.75-22.33 362.72-23 364.12-23.55 365.52-24.1 367.27-24.1L367.27-24.1Q371.77-24.1 374.02-21.55 376.27-19 376.27-14.4L376.27-14.4 376.27-8.05 377.32-3.05 376.27 0 367.27 0 367.27-13.1Q367.27-15 366.45-16.03 365.62-17.05 363.87-17.05L363.87-17.05 360.77-16.1 360.77 0ZM391.92 12.15L391.92 12.15Q390.67 12.15 389.07 12.08 387.47 12 386.47 11.9L386.47 11.9 380.37 8.95 382.87 2.45 390.72 5Q397.37 5 397.37-0.55L397.37-0.55 397.37-1.5 396.87-1.75Q396.17-1.05 394.64-0.33 393.12 0.4 389.87 0.4L389.87 0.4Q387.52 0.4 385.32-0.78 383.12-1.95 381.74-4.55 380.37-7.15 380.37-11.3L380.37-11.3Q380.37-15.95 381.77-18.78 383.17-21.6 385.34-22.9 387.52-24.2 389.87-24.2L389.87-24.2Q392.47-24.2 394.14-23.45 395.82-22.7 396.37-22L396.37-22 396.37-23.65 405.42-23.65 405.92-20.65 405.37-17.65 405.42-0.05Q405.42 4.25 403.74 6.95 402.07 9.65 399.04 10.9 396.02 12.15 391.92 12.15ZM393.62-6.65L393.62-6.65Q394.52-6.65 395.27-6.9 396.02-7.15 396.37-7.35L396.37-7.35 396.37-16.7Q396.17-16.85 395.62-17 395.07-17.15 394.12-17.15L394.12-17.15Q392.17-17.15 391.02-15.9 389.87-14.65 389.87-11.85L389.87-11.85Q389.87-9.1 390.97-7.88 392.07-6.65 393.62-6.65ZM432.56 0L423.56 0 423.56-16.2 420.91-21.2 423.56-23.6Q423.31-24.45 423.19-25.88 423.06-27.3 423.06-28.2L423.06-28.2Q423.06-31.05 424.39-33.2 425.71-35.35 428.06-36.58 430.41-37.8 433.36-37.8L433.36-37.8Q434.76-37.8 436.34-37.68 437.91-37.55 439.06-37.25L439.06-37.25 444.41-34.2 440.56-27.25 434.81-30.75Q433.11-30.75 432.31-29.53 431.51-28.3 431.51-26.8L431.51-26.8Q431.51-25.7 431.86-24.85 432.21-24 432.56-23.6L432.56-23.6 440.56-23.6 440.56-17.6 432.56-17.6 432.56-8.1 433.06-3.05 432.56 0ZM454.36 0L445.46 0 445.46-15.65 444.41-20.65 445.46-23.65 452.26-23.65 453.26-22.5Q453.26-22.5 453.96-22.93 454.66-23.35 455.94-23.75 457.21-24.15 458.91-24.15L458.91-24.15Q459.91-24.15 460.91-24 461.91-23.85 462.46-23.6L462.46-23.6 465.71-20.85 462.46-14.45 455.86-17.2 454.36-16.7 454.36 0ZM478.71 0.5L478.71 0.5Q474.86 0.5 471.86-0.65 468.86-1.8 467.16-4.5 465.46-7.2 465.46-11.8L465.46-11.8Q465.46-15.1 466.58-17.45 467.71-19.8 469.61-21.28 471.51-22.75 473.86-23.43 476.21-24.1 478.71-24.1L478.71-24.1Q483.01-24.1 485.33-23.25 487.66-22.4 488.41-21.9L488.41-21.9 490.91-13.95 489.91-10.85 474.41-10.85Q474.76-9 476.26-7.75 477.76-6.5 481.21-6.5L481.21-6.5Q483.91-6.5 485.86-7.1 487.81-7.7 488.91-8.15L488.91-8.15 488.91-1.45Q487.41-0.65 484.58-0.08 481.76 0.5 478.71 0.5ZM474.46-14.05L474.46-14.05 481.36-15.05 480.91-17.2Q480.56-17.4 479.88-17.5 479.21-17.6 478.71-17.6L478.71-17.6Q477.31-17.6 476.38-17 475.46-16.4 474.98-15.58 474.51-14.75 474.46-14.05ZM501.61 0.5L501.61 0.5Q499.46 0.5 497.63-0.13 495.81-0.75 494.71-2.3 493.61-3.85 493.61-6.6L493.61-6.6Q493.61-9.1 494.86-10.75 496.11-12.4 498.26-13.2 500.41-14 503.11-14L503.11-14Q505.71-14 507.01-13.43 508.31-12.85 509.26-12.25L509.26-12.25 509.61-12.55Q509.61-14.05 509.36-15.05 509.11-16.05 508.21-16.57 507.31-17.1 505.41-17.1L505.41-17.1Q503.56-17.1 501.48-16.78 499.41-16.45 497.68-15.98 495.96-15.5 495.11-15.05L495.11-15.05 495.11-22.55Q496.66-23.1 499.53-23.58 502.41-24.05 506.61-24.05L506.61-24.05Q511.11-24.05 513.73-22.93 516.36-21.8 517.51-19.68 518.66-17.55 518.66-14.6L518.66-14.6 518.66-7.95 519.66-2.9 518.66 0.05 510.11 0.05 510.11-2.4 509.61-2.65Q509.21-2.25 508.21-1.5 507.21-0.75 505.56-0.13 503.91 0.5 501.61 0.5ZM505.86-6.05L505.86-6.05Q507.21-6.05 508.18-6.3 509.16-6.55 509.61-6.75L509.61-6.75 509.61-7.7Q509.61-8.35 508.68-8.95 507.76-9.55 505.81-9.55L505.81-9.55Q503.11-9.55 503.11-7.65L503.11-7.65Q503.11-6.85 503.71-6.45 504.31-6.05 505.86-6.05ZM533.7 0L524.7 0 524.7-27.4 523.65-32.4 524.7-35.4 533.7-35.4 533.7-27.4 533.15-14.45 535.15-14.45 539-23.6 549.2-23.6 549.2-20.6 543.65-12.5 547.35-8 552.05-2.95 552.05 0 542.35 0 536.7-8.25 533.7-7.75 533.7 0ZM565.3 0.5L565.3 0.5Q561.65 0.5 558.85-0.25 556.05-1 554.5-1.8L554.5-1.8 554.5-8.75Q556.55-7.85 558.72-7.35 560.9-6.85 562.65-6.68 564.4-6.5 565.15-6.5L565.15-6.5Q566-6.5 566.35-6.78 566.7-7.05 566.7-7.45L566.7-7.45Q566.7-8 565.8-8.38 564.9-8.75 562.4-9.35L562.4-9.35Q560.35-9.85 558.42-10.63 556.5-11.4 555.27-12.8 554.05-14.2 554.05-16.55L554.05-16.55Q554.05-19.45 555.4-21.1 556.75-22.75 559.25-23.43 561.75-24.1 565.1-24.1L565.1-24.1Q567-24.1 568.65-23.9 570.3-23.7 571-23.6L571-23.6 575.65-20.6 573.4-15.25 564.65-17.15Q563.05-17.15 563.05-16.1L563.05-16.1Q563.05-15 565.35-14.45L565.35-14.45Q567.15-14.05 569.05-13.58 570.95-13.1 572.52-12.35 574.1-11.6 575.07-10.35 576.05-9.1 576.05-7.05L576.05-7.05Q576.05-3.25 573.32-1.38 570.6 0.5 565.3 0.5Z" opacity="1" transform="matrix(1,0,0,1,0,0)" fill="#454545" class="undefined-text-1" data-fill-palette-color="secondary" id="text-1"></path></svg></g></svg></g></svg></g></svg></g><g transform="matrix(1,0,0,1,41.161639604905986,0)"><svg viewBox="0 0 109.67672079018803 109.67672079018803" height="109.67672079018803" width="109.67672079018803"><g><svg></svg></g><g id="icon-0"><svg viewBox="0 0 109.67672079018803 109.67672079018803" height="109.67672079018803" width="109.67672079018803"><g><path d="M0 54.838c0-30.286 24.552-54.838 54.838-54.838 30.286 0 54.838 24.552 54.839 54.838 0 30.286-24.552 54.838-54.839 54.839-30.286 0-54.838-24.552-54.838-54.839zM54.838 107.074c28.849 0 52.235-23.387 52.236-52.236 0-28.849-23.387-52.235-52.236-52.235-28.849 0-52.235 23.387-52.235 52.235 0 28.849 23.387 52.235 52.235 52.236z" data-fill-palette-color="tertiary" fill="#454545" stroke="transparent"></path></g><g transform="matrix(1,0,0,1,22.09750171725706,22.09750171725706)"><svg viewBox="0 0 65.48171735567391 65.48171735567391" height="65.48171735567391" width="65.48171735567391"><g><svg xmlns="http://www.w3.org/2000/svg" xmlns:xlink="http://www.w3.org/1999/xlink" version="1.1" x="0" y="0" viewBox="0 0 24 24" style="enable-background:new 0 0 24 24;" xml:space="preserve" height="65.48171735567391" width="65.48171735567391" class="icon-s-0" data-fill-palette-color="accent" id="s-0"><g fill="#454545" data-fill-palette-color="accent"><g fill="#454545" data-fill-palette-color="accent"><path d="M12 17c-2.463 0-4.65-1.99-5.559-5.001C5.615 11.951 5 10.893 5 9.5c0-0.448 0.067-0.886 0.193-1.267 0.086-0.261 0.37-0.405 0.632-0.317 0.263 0.087 0.404 0.37 0.317 0.632C6.049 8.829 6 9.158 6 9.5 6 10.468 6.376 11 6.5 11c0.137-0.085 0.32-0.11 0.468-0.051 0.148 0.061 0.275 0.176 0.313 0.332C7.98 14.104 9.877 16 12 16s4.02-1.896 4.719-4.719c0.038-0.156 0.149-0.283 0.298-0.343 0.149-0.06 0.317-0.045 0.452 0.04C17.645 11.015 18 10.471 18 9.5c0-0.342-0.049-0.671-0.143-0.951-0.087-0.262 0.055-0.545 0.317-0.632 0.26-0.088 0.546 0.056 0.632 0.317C18.933 8.614 19 9.052 19 9.5c0 1.393-0.615 2.451-1.441 2.499C16.65 15.01 14.463 17 12 17z" fill="#454545" data-fill-palette-color="accent"></path></g><g fill="#454545" data-fill-palette-color="accent"><path d="M19.635 16.626l-2.572-0.895c-0.189-0.064-0.398-0.013-0.533 0.134C15.27 17.242 13.661 18 12 18s-3.27-0.758-4.529-2.134c-0.135-0.147-0.344-0.199-0.533-0.134l-2.572 0.895C1.754 17.534 0 20.001 0 22.766V23.5C0 23.776 0.224 24 0.5 24h23c0.276 0 0.5-0.224 0.5-0.5v-0.734C24 20.001 22.246 17.534 19.635 16.626z" fill="#454545" data-fill-palette-color="accent"></path><path d="M5.433 8.833c0.13 0.069 0.285 0.077 0.419 0.023C5.998 8.798 8.991 7.582 9.8 4.881c1.561 1.709 5.151 4.01 8.532 4.01 0.235 0 0.438-0.164 0.488-0.393C18.943 7.939 19 7.463 19 7c0-3.86-3.141-7-7-7S5 3.14 5 7c0 0.463 0.057 0.939 0.18 1.498C5.211 8.641 5.304 8.764 5.433 8.833z" fill="#454545" data-fill-palette-color="accent"></path></g><g fill="#454545" data-fill-palette-color="accent"><g fill="#454545" data-fill-palette-color="accent"><path d="M10 11c-1.121 0-2-0.659-2-1.5S8.879 8 10 8s2 0.659 2 1.5S11.121 11 10 11zM10 9C9.398 9 9 9.301 9 9.5S9.398 10 10 10s1-0.301 1-0.5S10.602 9 10 9z" fill="#454545" data-fill-palette-color="accent"></path></g><g fill="#454545" data-fill-palette-color="accent"><path d="M14 11c-1.121 0-2-0.659-2-1.5S12.879 8 14 8s2 0.659 2 1.5S15.121 11 14 11zM14 9c-0.602 0-1 0.301-1 0.5s0.398 0.5 1 0.5 1-0.301 1-0.5S14.602 9 14 9z" fill="#454545" data-fill-palette-color="accent"></path></g><g fill="#454545" data-fill-palette-color="accent"><path d="M12.5 10c-0.128 0-0.256-0.049-0.354-0.146L12 9.707l-0.146 0.146c-0.195 0.195-0.512 0.195-0.707 0s-0.195-0.512 0-0.707l0.5-0.5c0.195-0.195 0.512-0.195 0.707 0l0.5 0.5c0.195 0.195 0.195 0.512 0 0.707C12.756 9.951 12.628 10 12.5 10z" fill="#454545" data-fill-palette-color="accent"></path></g><g fill="#454545" data-fill-palette-color="accent"><path d="M15.5 10c-0.183 0-0.359-0.101-0.447-0.276-0.123-0.247-0.023-0.547 0.224-0.671l3-1.5c0.248-0.123 0.547-0.024 0.671 0.224 0.123 0.247 0.023 0.547-0.224 0.671l-3 1.5C15.651 9.983 15.575 10 15.5 10z" fill="#454545" data-fill-palette-color="accent"></path></g><g fill="#454545" data-fill-palette-color="accent"><path d="M8.5 10c-0.053 0-0.105-0.008-0.158-0.026l-3-1C5.08 8.887 4.938 8.604 5.025 8.342 5.114 8.08 5.398 7.938 5.658 8.026l3 1c0.262 0.087 0.403 0.37 0.316 0.632C8.904 9.868 8.709 10 8.5 10z" fill="#454545" data-fill-palette-color="accent"></path></g></g><g fill="#454545" data-fill-palette-color="accent"><path d="M6 10.833V7c0-0.276-0.224-0.5-0.5-0.5S5 6.724 5 7c0 1.615-0.897 5.19-1.854 6.146-0.195 0.195-0.195 0.512 0 0.707 1.105 1.106 4.868 1.591 5.293 1.643C8.46 15.499 8.48 15.5 8.5 15.5c0.177 0 0.343-0.094 0.433-0.25 0.101-0.173 0.088-0.39-0.032-0.55L6 10.833z" fill="#454545" data-fill-palette-color="accent"></path><path d="M20.854 13.146C19.897 12.19 19 8.615 19 7c0-0.276-0.224-0.5-0.5-0.5S18 6.724 18 7v3.833L15.1 14.7c-0.12 0.16-0.133 0.376-0.032 0.55 0.09 0.156 0.256 0.25 0.433 0.25 0.02 0 0.04-0.001 0.061-0.003 0.425-0.052 4.188-0.537 5.293-1.643C21.049 13.658 21.049 13.342 20.854 13.146z" fill="#454545" data-fill-palette-color="accent"></path></g></g></svg></g></svg></g></svg></g></svg></g><g></g></svg></g></svg></g></svg></g><defs></defs></svg><rect width="320" height="360" fill="none" stroke="none" visibility="hidden"></rect></g></svg></g></svg>